Coordinates
version=1
nRows=49
nColumns=12
inDegrees=yes

Units are S.I. units (second, meters, Newtons, ...)
Angles are in degrees

endheader
time	SC_y	SC_z	SC_x	AC_y	AC_z	AC_x	GH_y	GH_z	GH_yy	EL_x	PS_y
       0.0              -52.85       -0.09772          10.01           39.6          8.959          4.465         -90.82          17.93         -96.55          17.21          103.4
   0.04431              -52.85       -0.09436          10.02           39.6          8.956          4.464         -90.83          17.93         -96.56          17.21          103.4
   0.08861              -52.85       -0.09079          10.02           39.6          8.952          4.463         -90.83          17.94         -96.56          17.21          103.5
    0.1329              -52.85       -0.08699          10.02           39.6          8.947          4.461         -90.83          17.95         -96.57           17.2          103.5
    0.1772              -52.85       -0.08294          10.02          39.61          8.943           4.46         -90.84          17.96         -96.58           17.2          103.5
    0.2215              -52.85       -0.07863          10.03          39.61          8.938          4.458         -90.84          17.97         -96.59           17.2          103.5
    0.2658              -52.85       -0.07402          10.03          39.62          8.933          4.456         -90.85          17.98          -96.6           17.2          103.5
    0.3101              -52.85        -0.0691          10.04          39.62          8.927          4.455         -90.85          17.99         -96.61           17.2          103.5
    0.3544              -52.85       -0.06382          10.04          39.62          8.921          4.453         -90.86          18.01         -96.63           17.2          103.5
    0.3987              -52.85       -0.05817          10.04          39.63          8.915          4.451         -90.87          18.02         -96.64           17.2          103.5
    0.4431              -52.85       -0.05209          10.05          39.63          8.908          4.448         -90.87          18.03         -96.65           17.2          103.5
    0.4874              -52.85       -0.04555          10.05          39.64          8.901          4.446         -90.88          18.05         -96.67          17.19          103.5
    0.5317              -52.85        -0.0385          10.06          39.64          8.893          4.443         -90.89          18.06         -96.69          17.19          103.5
     0.576              -52.85       -0.03089          10.06          39.65          8.884          4.441          -90.9          18.08          -96.7          17.19          103.6
    0.6203              -52.85       -0.02265          10.07          39.66          8.875          4.438          -90.9           18.1         -96.72          17.19          103.6
    0.6646              -52.85       -0.01371          10.08          39.66          8.865          4.434         -90.91          18.12         -96.74          17.19          103.6
    0.7089              -52.85      -0.004001          10.08          39.67          8.854          4.431         -90.93          18.14         -96.77          17.18          103.6
    0.7532              -52.85        0.00658          10.09          39.68          8.842          4.427         -90.94          18.17         -96.79          17.18          103.6
    0.7975              -52.85        0.01813           10.1          39.69          8.829          4.423         -90.95           18.2         -96.82          17.18          103.7
    0.8418              -52.85        0.03078          10.11           39.7          8.815          4.418         -90.96          18.22         -96.85          17.17          103.7
    0.8861              -52.85        0.04467          10.12          39.71            8.8          4.413         -90.98          18.26         -96.88          17.17          103.7
    0.9304              -52.85        0.05996          10.13          39.72          8.782          4.407          -91.0          18.29         -96.92          17.17          103.7
    0.9747              -52.85        0.07684          10.14          39.74          8.763          4.401         -91.02          18.33         -96.95          17.16          103.8
     1.019              -52.84        0.09555          10.16          39.75          8.742          4.394         -91.04          18.37          -97.0          17.16          103.8
     1.063              -52.84         0.1163          10.17          39.77          8.719          4.387         -91.06          18.42         -97.05          17.15          103.8
     1.108              -52.84         0.1396          10.19          39.79          8.693          4.378         -91.09          18.48          -97.1          17.15          103.9
     1.152              -52.84         0.1655          10.21          39.81          8.664          4.369         -91.11          18.54         -97.16          17.14          103.9
     1.196              -52.84         0.1948          10.23          39.83          8.631          4.358         -91.15           18.6         -97.23          17.13          104.0
     1.241              -52.84         0.2278          10.25          39.86          8.594          4.346         -91.18          18.68         -97.31          17.12          104.0
     1.285              -52.84         0.2654          10.28          39.89          8.552          4.332         -91.23          18.77         -97.39          17.11          104.1
     1.329              -52.83         0.3082          10.31          39.92          8.504          4.317         -91.27          18.87         -97.49           17.1          104.2
     1.373              -52.83         0.3573          10.35          39.96          8.449          4.299         -91.33          18.98         -97.61          17.09          104.3
     1.418              -52.83         0.4141          10.39          40.01          8.385          4.278         -91.39          19.11         -97.74          17.08          104.4
     1.462              -52.83           0.48          10.44          40.06          8.311          4.254         -91.46          19.27         -97.89          17.06          104.5
     1.506              -52.82         0.5571           10.5          40.12          8.224          4.226         -91.55          19.44         -98.07          17.04          104.6
     1.551              -52.82         0.6481          10.57           40.2          8.122          4.192         -91.65          19.65         -98.28          17.02          104.8
     1.595              -52.81         0.7561          10.65          40.29          8.001          4.153         -91.77           19.9         -98.54          16.99          105.0
     1.639              -52.81         0.8857          10.74          40.39          7.855          4.106         -91.91           20.2         -98.84          16.96          105.2
     1.684               -52.8          1.042          10.86          40.52          7.679          4.048         -92.09          20.57          -99.2          16.92          105.5
     1.728              -52.79          1.234           11.0          40.67          7.464          3.978          -92.3          21.01         -99.65          16.87          105.9
     1.772              -52.78           1.47          11.17          40.86          7.199          3.892         -92.56          21.56         -100.2          16.81          106.3
     1.817              -52.76          1.765          11.39           41.1          6.868          3.784         -92.89          22.24         -100.9          16.73          106.9
     1.861              -52.74          2.136          11.67           41.4          6.452          3.649         -93.31           23.1         -101.7          16.64          107.5
     1.905              -52.72          2.608          12.02          41.78          5.922          3.476         -93.83          24.19         -102.8          16.52          108.4
     1.949              -52.69          3.212          12.46          42.27          5.244          3.255          -94.5          25.59         -104.3          16.37          109.5
     1.994              -52.65          3.987          13.04          42.89          4.374          2.972         -95.36          27.39         -106.1          16.17          110.9
     2.038              -52.61          4.977          13.77          43.69          3.262           2.61         -96.46          29.68         -108.4          15.92          112.8
     2.082              -52.55          6.221          14.69           44.7          1.865          2.155         -97.85          32.56         -111.3           15.6          115.0
     2.127              -52.47          7.738          15.81          45.92         0.1615            1.6         -99.53          36.08         -114.8          15.22          117.8
